<svg width="24" height="24" viewBox="0 0 24 24" fill="none" xmlns="http://www.w3.org/2000/svg">
<path fill-rule="evenodd" clip-rule="evenodd" d="M7.24989 6C7.24989 3.37665 9.37654 1.25 11.9999 1.25C14.6232 1.25 16.7499 3.37665 16.7499 6C16.7499 8.62335 14.6232 10.75 11.9999 10.75C9.37654 10.75 7.24989 8.62335 7.24989 6ZM11.9999 2.75C10.205 2.75 8.74989 4.20507 8.74989 6C8.74989 7.79493 10.205 9.25 11.9999 9.25C13.7948 9.25 15.2499 7.79493 15.2499 6C15.2499 4.20507 13.7948 2.75 11.9999 2.75Z" fill="#40C4FF"/>
<path d="M17.9999 13.9167C18.4141 13.9167 18.7499 14.2524 18.7499 14.6667V15.25H19.3331C19.7473 15.25 20.0831 15.5858 20.0831 16C20.0831 16.4142 19.7473 16.75 19.3331 16.75H18.7499V17.3333C18.7499 17.7475 18.4141 18.0833 17.9999 18.0833C17.5857 18.0833 17.2499 17.7475 17.2499 17.3333V16.75H16.6664C16.2522 16.75 15.9164 16.4142 15.9164 16C15.9164 15.5858 16.2522 15.25 16.6664 15.25H17.2499V14.6667C17.2499 14.2524 17.5857 13.9167 17.9999 13.9167Z" fill="#40C4FF"/>
<path fill-rule="evenodd" clip-rule="evenodd" d="M14.7745 12.5129C13.9018 12.3421 12.9683 12.25 11.9999 12.25C9.68634 12.25 7.55481 12.7759 5.97534 13.6643C4.41937 14.5396 3.24989 15.8661 3.24989 17.5L3.24982 17.602C3.24869 18.7638 3.24728 20.222 4.5263 21.2635C5.15577 21.7761 6.03637 22.1406 7.2261 22.3815C8.41915 22.6229 9.97411 22.75 11.9999 22.75C14.868 22.75 16.8098 22.4961 18.1195 22.0085C19.2984 21.5697 19.9971 20.9266 20.3702 20.1172C21.7926 19.2966 22.7499 17.7601 22.7499 16C22.7499 13.3766 20.6232 11.25 17.9999 11.25C16.7548 11.25 15.6216 11.7291 14.7745 12.5129ZM6.71073 14.9717C5.37127 15.7251 4.74989 16.6487 4.74989 17.5C4.74989 18.8078 4.79021 19.544 5.47348 20.1004C5.84401 20.4022 6.46341 20.6967 7.52368 20.9113C8.58063 21.1252 10.0257 21.25 11.9999 21.25C14.5779 21.25 16.24 21.0366 17.3107 20.7004C15.014 20.3666 13.2499 18.3893 13.2499 16C13.2499 15.2322 13.4321 14.5069 13.7556 13.865C13.1938 13.79 12.6059 13.75 11.9999 13.75C9.89516 13.75 8.02669 14.2315 6.71073 14.9717ZM14.7499 16C14.7499 14.2051 16.205 12.75 17.9999 12.75C19.7948 12.75 21.2499 14.2051 21.2499 16C21.2499 17.7949 19.7948 19.25 17.9999 19.25C16.205 19.25 14.7499 17.7949 14.7499 16Z" fill="#40C4FF"/>
</svg>
