<svg width="26" height="26" viewBox="0 0 26 26" fill="none" xmlns="http://www.w3.org/2000/svg">
<path fill-rule="evenodd" clip-rule="evenodd" d="M2.4375 13.0002C2.4375 11.3548 3.77132 10.021 5.41667 10.021C7.06202 10.021 8.39583 11.3548 8.39583 13.0002C8.39583 14.6455 7.06202 15.9793 5.41667 15.9793C3.77132 15.9793 2.4375 14.6455 2.4375 13.0002ZM5.41667 11.646C4.66878 11.646 4.0625 12.2523 4.0625 13.0002C4.0625 13.748 4.66878 14.3543 5.41667 14.3543C6.16455 14.3543 6.77083 13.748 6.77083 13.0002C6.77083 12.2523 6.16455 11.646 5.41667 11.646Z" fill="#2C2D3A"/>
<path fill-rule="evenodd" clip-rule="evenodd" d="M10.0208 13.0002C10.0208 11.3548 11.3547 10.021 13 10.021C14.6453 10.021 15.9792 11.3548 15.9792 13.0002C15.9792 14.6455 14.6453 15.9793 13 15.9793C11.3547 15.9793 10.0208 14.6455 10.0208 13.0002ZM13 11.646C12.2521 11.646 11.6458 12.2523 11.6458 13.0002C11.6458 13.748 12.2521 14.3543 13 14.3543C13.7479 14.3543 14.3542 13.748 14.3542 13.0002C14.3542 12.2523 13.7479 11.646 13 11.646Z" fill="#2C2D3A"/>
<path fill-rule="evenodd" clip-rule="evenodd" d="M20.5833 10.021C18.938 10.021 17.6042 11.3548 17.6042 13.0002C17.6042 14.6455 18.938 15.9793 20.5833 15.9793C22.2287 15.9793 23.5625 14.6455 23.5625 13.0002C23.5625 11.3548 22.2287 10.021 20.5833 10.021ZM19.2292 13.0002C19.2292 12.2523 19.8354 11.646 20.5833 11.646C21.3312 11.646 21.9375 12.2523 21.9375 13.0002C21.9375 13.748 21.3312 14.3543 20.5833 14.3543C19.8354 14.3543 19.2292 13.748 19.2292 13.0002Z" fill="#2C2D3A"/>
</svg>
