<svg width="25" height="24" viewBox="0 0 25 24" fill="none" xmlns="http://www.w3.org/2000/svg">
<path fill-rule="evenodd" clip-rule="evenodd" d="M20.9258 7C20.9258 7.41421 20.59 7.75 20.1758 7.75L4.17578 7.75C3.76157 7.75 3.42578 7.41421 3.42578 7C3.42578 6.58579 3.76157 6.25 4.17578 6.25L20.1758 6.25C20.59 6.25 20.9258 6.58579 20.9258 7Z" fill="#9A9BB1"/>
<path fill-rule="evenodd" clip-rule="evenodd" d="M20.9258 12C20.9258 12.4142 20.59 12.75 20.1758 12.75L4.17578 12.75C3.76157 12.75 3.42578 12.4142 3.42578 12C3.42578 11.5858 3.76157 11.25 4.17578 11.25L20.1758 11.25C20.59 11.25 20.9258 11.5858 20.9258 12Z" fill="#9A9BB1"/>
<path fill-rule="evenodd" clip-rule="evenodd" d="M20.9258 17C20.9258 17.4142 20.59 17.75 20.1758 17.75L4.17578 17.75C3.76157 17.75 3.42578 17.4142 3.42578 17C3.42578 16.5858 3.76157 16.25 4.17578 16.25L20.1758 16.25C20.59 16.25 20.9258 16.5858 20.9258 17Z" fill="#9A9BB1"/>
</svg>
