<svg width="26" height="26" viewBox="0 0 26 26" fill="none" xmlns="http://www.w3.org/2000/svg">
<path fill-rule="evenodd" clip-rule="evenodd" d="M10.2387 3.521H10.3446C12.0804 3.52098 13.4556 3.52097 14.5435 3.64957C15.6604 3.78159 16.5798 4.05874 17.3478 4.68905C17.6084 4.90288 17.8473 5.14179 18.0611 5.40235C18.6914 6.17037 18.9686 7.0898 19.1006 8.20668C19.1303 8.45773 19.1531 8.72407 19.1706 9.0066C20.0221 8.58224 20.7437 8.23356 21.3451 8.03677C22.0508 7.80585 22.7994 7.71265 23.4898 8.13934C24.1802 8.56603 24.4316 9.27725 24.5407 10.0117C24.6459 10.7204 24.6459 11.6538 24.6458 12.7753V13.225C24.6459 14.3465 24.6459 15.28 24.5407 15.9886C24.4316 16.7231 24.1802 17.4343 23.4898 17.861C22.7994 18.2877 22.0508 18.1945 21.3451 17.9636C20.7437 17.7668 20.0221 17.4181 19.1706 16.9937C19.1531 17.2763 19.1303 17.5426 19.1006 17.7936C18.9686 18.9105 18.6914 19.83 18.0611 20.598C17.8473 20.8585 17.6084 21.0974 17.3478 21.3113C16.5798 21.9416 15.6604 22.2187 14.5435 22.3508C13.4556 22.4794 12.0805 22.4793 10.3447 22.4793H10.2386C8.50286 22.4793 7.12774 22.4794 6.03984 22.3508C4.92296 22.2187 4.00353 21.9416 3.23551 21.3113C2.97495 21.0974 2.73604 20.8585 2.52221 20.598C1.8919 19.83 1.61475 18.9105 1.48273 17.7936C1.35413 16.7057 1.35414 15.3306 1.35416 13.5948V12.4055C1.35414 10.6697 1.35413 9.29459 1.48273 8.20668C1.61475 7.0898 1.8919 6.17037 2.52221 5.40235C2.73604 5.14179 2.97495 4.90288 3.23551 4.68905C4.00353 4.05874 4.92296 3.78159 6.03984 3.64957C7.12775 3.52097 8.50288 3.52098 10.2387 3.521ZM17.6042 13.5418V12.4585C17.6042 10.6579 17.6028 9.37884 17.4868 8.39744C17.3729 7.43397 17.1583 6.86376 16.805 6.43324C16.6587 6.25496 16.4952 6.0915 16.3169 5.94519C15.8864 5.59187 15.3162 5.37722 14.3527 5.26333C13.3713 5.14733 12.0923 5.146 10.2917 5.146C8.49104 5.146 7.212 5.14733 6.2306 5.26333C5.26713 5.37722 4.69692 5.59187 4.2664 5.94519C4.08812 6.0915 3.92466 6.25496 3.77835 6.43324C3.42503 6.86376 3.21038 7.43397 3.09649 8.39744C2.98049 9.37884 2.97916 10.6579 2.97916 12.4585V13.5418C2.97916 15.3425 2.98049 16.6215 3.09649 17.6029C3.21038 18.5664 3.42503 19.1366 3.77835 19.5671C3.92466 19.7454 4.08812 19.9088 4.2664 20.0551C4.69692 20.4085 5.26713 20.6231 6.2306 20.737C7.212 20.853 8.49104 20.8543 10.2917 20.8543C12.0923 20.8543 13.3713 20.853 14.3527 20.737C15.3162 20.6231 15.8864 20.4085 16.3169 20.0551C16.4952 19.9088 16.6587 19.7454 16.805 19.5671C17.1583 19.1366 17.3729 18.5664 17.4868 17.6029C17.6028 16.6215 17.6042 15.3425 17.6042 13.5418ZM19.2292 15.2063L19.4932 15.3384C20.5716 15.8776 21.2981 16.2384 21.8504 16.4191C22.3914 16.5961 22.5552 16.5283 22.6355 16.4787C22.7158 16.4291 22.8497 16.3129 22.9333 15.7499C23.0187 15.175 23.0208 14.3638 23.0208 13.1582V12.8421C23.0208 11.6365 23.0187 10.8253 22.9333 10.2504C22.8497 9.68742 22.7158 9.57127 22.6355 9.52165C22.5552 9.47203 22.3914 9.40418 21.8504 9.58119C21.2981 9.76193 20.5716 10.1228 19.4932 10.6619L19.2292 10.794V12.3139C19.2292 12.3443 19.2292 12.3748 19.2292 12.4055V13.5948C19.2292 13.6255 19.2292 13.656 19.2292 13.6865V15.2063Z" fill="#2C2D3A"/>
</svg>
